<svg xmlns="http://www.w3.org/2000/svg" width="558" height="68">
         <defs>
            <style type="text/css">
               @namespace "http://www.w3.org/2000/svg";
               .line                 {fill: none; stroke: #332900;}
               .bold-line            {stroke: #141000; shape-rendering: crispEdges; stroke-width:
               2; }
               .thin-line            {stroke: #1F1800; shape-rendering: crispEdges}
               .filled               {fill: #332900; stroke: none;}
               text.terminal         {font-family: Verdana, Sans-serif;
               font-size: 12px;
               fill: #141000;
               font-weight: bold;
               }
               text.nonterminal      {font-family: Verdana, Sans-serif;
               font-size: 12px;
               fill: #1A1400;
               }
               text.regexp           {font-family: Verdana, Sans-serif;
               font-size: 12px;
               fill: #1F1800;
               }
               rect, circle, polygon {fill: #332900; stroke: #332900;}
               rect.terminal         {fill: #FFDB4D; stroke: #332900;}
               rect.nonterminal      {fill: #FFEC9E; stroke: #332900;}
               rect.text             {fill: none; stroke: none;}    
               polygon.regexp        {fill: #FFF4C7; stroke: #332900;}
               
            </style>
         </defs>
         <polygon points="9 17 1 13 1 21"/>
         <polygon points="17 17 9 13 9 21"/>
         <a xmlns:xlink="http://www.w3.org/1999/xlink" xlink:href="#description-category" xlink:title="description-category">
            <rect x="31" y="3" width="148" height="32"/>
            <rect x="29" y="1" width="148" height="32" class="nonterminal"/>
            <text class="nonterminal" x="39" y="21">description-category</text>
         </a>
         <rect x="219" y="35" width="26" height="32" rx="10"/>
         <rect x="217" y="33" width="26" height="32" class="terminal" rx="10"/>
         <text class="terminal" x="227" y="53">(</text>
         <a xmlns:xlink="http://www.w3.org/1999/xlink" xlink:href="#title" xlink:title="title">
            <rect x="265" y="35" width="44" height="32"/>
            <rect x="263" y="33" width="44" height="32" class="nonterminal"/>
            <text class="nonterminal" x="273" y="53">title</text>
         </a>
         <rect x="329" y="35" width="26" height="32" rx="10"/>
         <rect x="327" y="33" width="26" height="32" class="terminal" rx="10"/>
         <text class="terminal" x="337" y="53">)</text>
         <a xmlns:xlink="http://www.w3.org/1999/xlink" xlink:href="#numbering-marker" xlink:title="numbering-marker">
            <rect x="395" y="3" width="136" height="32"/>
            <rect x="393" y="1" width="136" height="32" class="nonterminal"/>
            <text class="nonterminal" x="403" y="21">numbering-marker</text>
         </a>
         <svg:path xmlns:svg="http://www.w3.org/2000/svg" class="line" d="m17 17 h2 m0 0 h10 m148 0 h10 m20 0 h10 m0 0 h146 m-176 0 h20 m156 0 h20 m-196 0 q10 0 10 10 m176 0 q0 -10 10 -10 m-186 10 v12 m176 0 v-12 m-176 12 q0 10 10 10 m156 0 q10 0 10 -10 m-166 10 h10 m26 0 h10 m0 0 h10 m44 0 h10 m0 0 h10 m26 0 h10 m20 -32 h10 m136 0 h10 m3 0 h-3"/>
         <polygon points="549 17 557 13 557 21"/>
         <polygon points="549 17 541 13 541 21"/>
      </svg>
