<svg xmlns="http://www.w3.org/2000/svg" width="226" height="202">
         <defs>
            <style type="text/css">
               @namespace "http://www.w3.org/2000/svg";
               .line                 {fill: none; stroke: #332900;}
               .bold-line            {stroke: #141000; shape-rendering: crispEdges; stroke-width:
               2; }
               .thin-line            {stroke: #1F1800; shape-rendering: crispEdges}
               .filled               {fill: #332900; stroke: none;}
               text.terminal         {font-family: Verdana, Sans-serif;
               font-size: 12px;
               fill: #141000;
               font-weight: bold;
               }
               text.nonterminal      {font-family: Verdana, Sans-serif;
               font-size: 12px;
               fill: #1A1400;
               }
               text.regexp           {font-family: Verdana, Sans-serif;
               font-size: 12px;
               fill: #1F1800;
               }
               rect, circle, polygon {fill: #332900; stroke: #332900;}
               rect.terminal         {fill: #FFDB4D; stroke: #332900;}
               rect.nonterminal      {fill: #FFEC9E; stroke: #332900;}
               rect.text             {fill: none; stroke: none;}    
               polygon.regexp        {fill: #FFF4C7; stroke: #332900;}
               
            </style>
         </defs>
         <polygon points="9 183 1 179 1 187"/>
         <polygon points="17 183 9 179 9 187"/>
         <a xmlns:xlink="http://www.w3.org/1999/xlink" xlink:href="#letter" xlink:title="letter">
            <rect x="31" y="169" width="54" height="32"/>
            <rect x="29" y="167" width="54" height="32" class="nonterminal"/>
            <text class="nonterminal" x="39" y="187">letter</text>
         </a>
         <a xmlns:xlink="http://www.w3.org/1999/xlink" xlink:href="#letter" xlink:title="letter">
            <rect x="125" y="135" width="54" height="32"/>
            <rect x="123" y="133" width="54" height="32" class="nonterminal"/>
            <text class="nonterminal" x="133" y="153">letter</text>
         </a>
         <a xmlns:xlink="http://www.w3.org/1999/xlink" xlink:href="#digit" xlink:title="digit">
            <rect x="125" y="91" width="46" height="32"/>
            <rect x="123" y="89" width="46" height="32" class="nonterminal"/>
            <text class="nonterminal" x="133" y="109">digit</text>
         </a>
         <rect x="125" y="47" width="26" height="32" rx="10"/>
         <rect x="123" y="45" width="26" height="32" class="terminal" rx="10"/>
         <text class="terminal" x="133" y="65">-</text>
         <rect x="125" y="3" width="28" height="32" rx="10"/>
         <rect x="123" y="1" width="28" height="32" class="terminal" rx="10"/>
         <text class="terminal" x="133" y="21">_</text>
         <svg:path xmlns:svg="http://www.w3.org/2000/svg" class="line" d="m17 183 h2 m0 0 h10 m54 0 h10 m20 0 h10 m0 0 h64 m-94 0 l20 0 m-1 0 q-9 0 -9 -10 l0 -14 q0 -10 10 -10 m74 34 l20 0 m-20 0 q10 0 10 -10 l0 -14 q0 -10 -10 -10 m-74 0 h10 m54 0 h10 m-84 10 l0 -44 q0 -10 10 -10 m84 54 l0 -44 q0 -10 -10 -10 m-74 0 h10 m46 0 h10 m0 0 h8 m-84 10 l0 -44 q0 -10 10 -10 m84 54 l0 -44 q0 -10 -10 -10 m-74 0 h10 m26 0 h10 m0 0 h28 m-84 10 l0 -44 q0 -10 10 -10 m84 54 l0 -44 q0 -10 -10 -10 m-74 0 h10 m28 0 h10 m0 0 h26 m23 166 h-3"/>
         <polygon points="217 183 225 179 225 187"/>
         <polygon points="217 183 209 179 209 187"/>
      </svg>
