<svg xmlns="http://www.w3.org/2000/svg" width="504" height="68">
         <defs>
            <style type="text/css">
               @namespace "http://www.w3.org/2000/svg";
               .line                 {fill: none; stroke: #332900;}
               .bold-line            {stroke: #141000; shape-rendering: crispEdges; stroke-width:
               2; }
               .thin-line            {stroke: #1F1800; shape-rendering: crispEdges}
               .filled               {fill: #332900; stroke: none;}
               text.terminal         {font-family: Verdana, Sans-serif;
               font-size: 12px;
               fill: #141000;
               font-weight: bold;
               }
               text.nonterminal      {font-family: Verdana, Sans-serif;
               font-size: 12px;
               fill: #1A1400;
               }
               text.regexp           {font-family: Verdana, Sans-serif;
               font-size: 12px;
               fill: #1F1800;
               }
               rect, circle, polygon {fill: #332900; stroke: #332900;}
               rect.terminal         {fill: #FFDB4D; stroke: #332900;}
               rect.nonterminal      {fill: #FFEC9E; stroke: #332900;}
               rect.text             {fill: none; stroke: none;}    
               polygon.regexp        {fill: #FFF4C7; stroke: #332900;}
               
            </style>
         </defs>
         <polygon points="9 17 1 13 1 21"/>
         <polygon points="17 17 9 13 9 21"/>
         <a xmlns:xlink="http://www.w3.org/1999/xlink" xlink:href="#sectioning" xlink:title="sectioning">
            <rect x="51" y="35" width="84" height="32"/>
            <rect x="49" y="33" width="84" height="32" class="nonterminal"/>
            <text class="nonterminal" x="59" y="53">sectioning</text>
         </a>
         <rect x="175" y="3" width="30" height="32" rx="10"/>
         <rect x="173" y="1" width="30" height="32" class="terminal" rx="10"/>
         <text class="terminal" x="183" y="21">#</text>
         <a xmlns:xlink="http://www.w3.org/1999/xlink" xlink:href="#prefix" xlink:title="prefix">
            <rect x="245" y="35" width="54" height="32"/>
            <rect x="243" y="33" width="54" height="32" class="nonterminal"/>
            <text class="nonterminal" x="253" y="53">prefix</text>
         </a>
         <rect x="319" y="35" width="24" height="32" rx="10"/>
         <rect x="317" y="33" width="24" height="32" class="terminal" rx="10"/>
         <text class="terminal" x="327" y="53">:</text>
         <a xmlns:xlink="http://www.w3.org/1999/xlink" xlink:href="#name" xlink:title="name">
            <rect x="403" y="35" width="54" height="32"/>
            <rect x="401" y="33" width="54" height="32" class="nonterminal"/>
            <text class="nonterminal" x="411" y="53">name</text>
         </a>
         <svg:path xmlns:svg="http://www.w3.org/2000/svg" class="line" d="m17 17 h2 m20 0 h10 m0 0 h94 m-124 0 h20 m104 0 h20 m-144 0 q10 0 10 10 m124 0 q0 -10 10 -10 m-134 10 v12 m124 0 v-12 m-124 12 q0 10 10 10 m104 0 q10 0 10 -10 m-114 10 h10 m84 0 h10 m20 -32 h10 m30 0 h10 m20 0 h10 m0 0 h108 m-138 0 h20 m118 0 h20 m-158 0 q10 0 10 10 m138 0 q0 -10 10 -10 m-148 10 v12 m138 0 v-12 m-138 12 q0 10 10 10 m118 0 q10 0 10 -10 m-128 10 h10 m54 0 h10 m0 0 h10 m24 0 h10 m40 -32 h10 m0 0 h64 m-94 0 h20 m74 0 h20 m-114 0 q10 0 10 10 m94 0 q0 -10 10 -10 m-104 10 v12 m94 0 v-12 m-94 12 q0 10 10 10 m74 0 q10 0 10 -10 m-84 10 h10 m54 0 h10 m23 -32 h-3"/>
         <polygon points="495 17 503 13 503 21"/>
         <polygon points="495 17 487 13 487 21"/>
      </svg>
