<svg xmlns="http://www.w3.org/2000/svg" width="338" height="36">
         <defs>
            <style type="text/css">
               @namespace "http://www.w3.org/2000/svg";
               .line                 {fill: none; stroke: #332900;}
               .bold-line            {stroke: #141000; shape-rendering: crispEdges; stroke-width:
               2; }
               .thin-line            {stroke: #1F1800; shape-rendering: crispEdges}
               .filled               {fill: #332900; stroke: none;}
               text.terminal         {font-family: Verdana, Sans-serif;
               font-size: 12px;
               fill: #141000;
               font-weight: bold;
               }
               text.nonterminal      {font-family: Verdana, Sans-serif;
               font-size: 12px;
               fill: #1A1400;
               }
               text.regexp           {font-family: Verdana, Sans-serif;
               font-size: 12px;
               fill: #1F1800;
               }
               rect, circle, polygon {fill: #332900; stroke: #332900;}
               rect.terminal         {fill: #FFDB4D; stroke: #332900;}
               rect.nonterminal      {fill: #FFEC9E; stroke: #332900;}
               rect.text             {fill: none; stroke: none;}    
               polygon.regexp        {fill: #FFF4C7; stroke: #332900;}
               
            </style>
         </defs>
         <polygon points="9 17 1 13 1 21"/>
         <polygon points="17 17 9 13 9 21"/>
         <a xmlns:xlink="http://www.w3.org/1999/xlink" xlink:href="#hidden-sectioning" xlink:title="hidden-sectioning">
            <rect x="31" y="3" width="132" height="32"/>
            <rect x="29" y="1" width="132" height="32" class="nonterminal"/>
            <text class="nonterminal" x="39" y="21">hidden-sectioning</text>
         </a>
         <a xmlns:xlink="http://www.w3.org/1999/xlink" xlink:href="#visible-sectioning" xlink:title="visible-sectioning">
            <rect x="183" y="3" width="128" height="32"/>
            <rect x="181" y="1" width="128" height="32" class="nonterminal"/>
            <text class="nonterminal" x="191" y="21">visible-sectioning</text>
         </a>
         <svg:path xmlns:svg="http://www.w3.org/2000/svg" class="line" d="m17 17 h2 m0 0 h10 m132 0 h10 m0 0 h10 m128 0 h10 m3 0 h-3"/>
         <polygon points="329 17 337 13 337 21"/>
         <polygon points="329 17 321 13 321 21"/>
      </svg>
